<svg width="" height="" viewBox="0 0 483 338" fill="none" xmlns="http://www.w3.org/2000/svg">
<path d="M241.782 337.43C189.133 297.94 146.66 287.01 46.7823 288.43C51.0217 182.402 50.5977 122.957 
46.7823 16.9299M241.782 337.43V59.4299M241.782 337.43C290.308 303.8 323.613 288.635 439.782 295.93C431.709 
187.364 431.481 126.496 439.782 17.9299M241.782 337.43C308.526 308.272 355.077 303.395 459.782 321.93C451.95 
209.459 450.342 146.401 459.782 33.9299M241.782 337.43L481.782 337.216C475.066 221.008 473.002 155.288 481.782 
33.9299H459.782M241.782 337.43H0.525513C3.88958 217.588 6.3122 150.186 0.525513 33.9299H22.7823M241.782 
337.43C130.553 303.213 76.4208 304.811 23.2823 321.93C28.7323 209.94 29.07 146.92 22.7823 33.9299M241.782 
59.4299C158.01 1.61906 115.929 -5.74074 46.7823 11.4299V16.9299M241.782 59.4299C248.645 49.4564 365.96 -19.0042 
439.782 5.92986V17.9299M439.782 17.9299C446.606 17.792 451.004 19.1286 459.782 23.9299V33.9299M22.7823 
33.9299V22.9299C27.5863 20.2705 31.6745 19.1073 42.7823 17.9299L46.7823 16.9299" stroke=""/>
</svg>
