<svg width="" height="" viewBox="0 0 650 773" fill="none" xmlns="http://www.w3.org/2000/svg">
<path d="M327.504 204.097V27.0974V0.597412M327.504 204.097L0.503845 212.597M327.504 204.097L649.004 212.597M327.504 204.097L528.504 551.597M327.504 204.097L125.504 551.597M0.503845 212.597L327.504 0.597412M0.503845 212.597L125.504 551.597M0.503845 212.597L5.50385 569.597M327.504 0.597412L649.004 212.597M649.004 212.597L528.504 551.597M649.004 212.597V569.597M528.504 551.597L649.004 569.597M528.504 551.597L328.004 772.097M528.504 551.597H125.504M649.004 569.597L328.004 772.097M328.004 772.097L125.504 551.597M328.004 772.097L5.50385 569.597M125.504 551.597L5.50385 569.597" stroke=""/>
</svg>
