<svg viewBox="0 0 191 298" fill="none" xmlns="http://www.w3.org/2000/svg">
<path d="M52.2559 7.90408C63.4941 2.34234 78.0977 -0.252461 97.0068 0.0193143L97.0059 0.0202909C112.742 0.203496 125.593 2.30454 135.961 7.04373C146.342 11.7893 154.206 19.167 159.976 29.8445C165.738 40.5091 169.406 54.4528 171.435 72.3289C173.448 90.073 173.847 111.722 173.063 137.937C173.064 137.948 173.064 137.956 173.064 137.958V137.97C173.064 137.976 173.064 137.989 173.063 138.007C173.063 138.011 173.064 138.015 173.063 138.019H191V297.519H0V138.019H16.4932C16.1713 114.637 16.2983 94.2934 17.832 76.9451C19.3766 59.4744 22.3506 45.0048 27.7529 33.5086C33.162 21.9979 41.0035 13.4728 52.2559 7.90408ZM1 296.519H190V139.019H1V296.519ZM96.9932 1.01931C78.1705 0.748747 63.7423 3.33539 52.6992 8.80056C41.6703 14.2588 33.9804 22.6057 28.6572 33.9334C23.3273 45.2756 20.3683 59.6114 18.8281 77.033C17.2989 94.3303 17.1711 114.634 17.4932 138.019H46.9785C46.1749 119.316 45.8357 103.187 46.5244 89.5271C47.2193 75.7445 48.9616 64.4429 52.3467 55.531C55.7363 46.6073 60.7792 40.0653 68.0713 35.8377C75.3504 31.6177 84.817 29.734 97.002 30.0183C108.544 29.8026 117.285 32.0252 123.854 36.6502C130.427 41.2787 134.762 48.269 137.58 57.4607C140.396 66.6458 141.706 78.0631 142.212 91.5935C142.713 104.997 142.424 120.507 142.012 138.019H172.061C172.848 111.774 172.449 90.1421 170.44 72.4412C168.419 54.6289 164.773 40.8272 159.096 30.3201C153.425 19.8264 145.722 12.6047 135.546 7.95291C125.356 3.29478 112.66 1.2017 96.9941 1.01931H96.9932ZM96.9883 31.0193C84.9021 30.7361 75.6365 32.6074 68.5723 36.7029C61.5193 40.792 56.6074 47.1296 53.2812 55.8865C49.9506 64.6554 48.2162 75.8362 47.5234 89.5769C46.8367 103.198 47.1748 119.304 47.9795 138.019H141.011C141.424 120.493 141.713 105.005 141.213 91.6306C140.708 78.1291 139.402 66.8143 136.624 57.7537C133.849 48.7001 129.615 41.9298 123.277 37.4676C116.937 33.0034 108.426 30.8045 97.0098 31.0193H96.9883Z"/>
</svg>
