<svg width="" height="" viewBox="0 0 681 681" fill="" xmlns="http://www.w3.org/2000/svg">
<path d="M410 0.5H273L290.5 25C308.637 125.565 306.65 181.945 287.5 282.5C184.489 303.754 128.189 
306.728 31.5 282.5L0.5 272V410L31.5 399.5C113.684 368.261 172.232 374.943 287.5 399.5C314.17 
500.86 313.045 556.755 287.5 655L272.5 680H410L395.5 655C378.168 556.877 378.088 500.88 395.5 
399.5C493.08 378.318 548.865 376.788 651 399.5L680.5 410V272L651 282C550.858 305.654 495.37 305.245 
397.5 282C375.943 181.635 373.707 125.365 397.5 25L410 0.5Z" stroke=""/>
</svg>
