<svg width="" height="" viewBox="0 0 441 475" fill="none" xmlns="http://www.w3.org/2000/svg">
<path d="M195.888 9.43982C253.696 95.8981 302.279 124.242 429.388 124.44M195.888 
9.43982C195.888 9.43982 155.777 78.4596 118.388 109.44C80.9996 140.42 7.88812 166.44 
7.88812 166.44M195.888 9.43982C202.204 79.6216 208.542 118.591 228.388 186.94M429.388 
124.44C338.246 223.529 329.669 280.288 364.388 382.94M429.388 124.44C351.379 151.426 307.484 
165.721 228.388 186.94M364.388 382.94C316.396 358.258 284.555 387.85 224.888 465.94C166.771 
393.949 139.542 373.912 109.888 409.94M364.388 382.94L363.074 381.407C303.394 311.795 269.528 
272.294 228.388 186.94M109.888 409.94C101.968 356.185 80.3875 342.3 17.8881 342.44C52.1791 270.983 
54.3048 232.14 7.88812 166.44M109.888 409.94C147.842 322.33 173.093 273.461 228.388 186.94M109.888 
409.94C100.889 271.135 80.3319 215.301 7.88812 166.44M7.88812 166.44C85.5566 189.457 135.207 191.507 
228.388 186.94M368.388 206.94C366.247 244.494 372.311 265.953 404.888 305.44C372.252 307.721 360.458 
314.685 352.388 338.44M110.388 409.44C152.709 358.273 279.663 342.045 364.388 383.44" 
stroke="" stroke-width=""/>
</svg>
