<svg width="200" height="200" viewBox="0 0 200 200" fill="none" xmlns="http://www.w3.org/2000/svg">
<path d="M100 0C125.537 0 148.837 9.57372 166.511 25.3262L171.446 20.6377L171.51 20.5771L171.591 20.542L186.791 13.9414L187.91 13.4561L187.454 14.5869L182.054 27.9873L182.017 28.0791L181.948 28.1494L175.65 34.6006C190.821 52.1339 200 74.9947 200 100C200 125.454 190.489 148.686 174.828 166.338L175.686 167.363C182.177 169.205 185.618 171.309 186.901 174.058C188.199 176.838 187.189 180.068 185.453 183.811L185.381 183.968L185.226 184.047C181.198 186.086 177.724 186.935 174.834 185.423C171.994 183.937 169.922 180.27 168.357 173.89L167.826 173.48C150.002 189.942 126.176 200 100 200C73.8216 200 49.994 189.939 32.1689 173.476L31.6328 173.89C30.0683 180.27 27.9964 183.937 25.1562 185.423C22.266 186.935 18.7921 186.086 14.7646 184.047L14.6094 183.968L14.5371 183.811C12.801 180.068 11.7912 176.838 13.0889 174.058C14.3719 171.31 17.8136 169.205 24.3047 167.363L25.166 166.332C9.50845 148.681 0 125.451 0 100C0 74.9974 9.17587 52.138 24.3438 34.6055L18.042 28.1494L17.9736 28.0791L17.9365 27.9873L12.5361 14.5869L12.0801 13.4561L13.1992 13.9414L28.3994 20.542L28.4805 20.5771L28.5439 20.6377L33.4824 25.3311C51.1564 9.5753 74.4598 0 100 0ZM155.337 163.859C140.59 177.38 121.131 185.6 99.8008 185.601L98.7227 185.594C77.9003 185.323 58.9171 177.219 44.4404 164.022L36.1895 170.379C53.0528 185.678 75.4375 195 100 195C124.56 195 146.943 185.679 163.806 170.383L155.337 163.859ZM67.9863 144.905C72.8037 155.622 76.8032 160.448 84.7402 168.244L85.1006 168.598L79.1279 174.57L78.7842 174.092C72.1501 164.852 67.8956 160.077 58.207 153.418L48.4678 160.92C62.239 173.189 80.2004 180.601 99.8008 180.601C119.486 180.6 137.517 173.123 151.312 160.758L141.783 153.418C132.095 160.077 127.84 164.852 121.206 174.092L120.862 174.57L114.89 168.598L115.25 168.244C123.187 160.448 127.187 155.622 132.004 144.905L99.9951 112.111L67.9863 144.905ZM164.519 46.0059C176.198 60.7354 183.2 79.5286 183.2 100C183.2 120.473 176.195 139.267 164.514 153.997L171.583 162.455C186.165 145.756 195 123.911 195 100C195 76.3975 186.391 54.8065 172.145 38.1924L164.519 46.0059ZM27.8496 38.1982C13.6059 54.8115 5 76.4005 5 100C5 123.907 13.8321 145.751 28.4102 162.449L35.2754 154.236C23.48 139.471 16.4005 120.584 16.4004 100C16.4005 79.4265 23.4723 60.5483 35.2568 45.7861L27.8496 38.1982ZM38.7754 49.3916C27.9146 63.2091 21.4005 80.8026 21.4004 100C21.4005 119.063 27.8252 136.544 38.5498 150.317L46.3682 140.965C40.2932 131.765 35.748 127.136 25.7012 120.008L25.2178 119.666L30.4365 114.447L30.7861 114.097L31.1396 114.443C39.4413 122.566 44.6619 126.339 55.0928 131.202L88.0547 99.8789L38.7754 49.3916ZM111.935 99.8789L144.897 131.202C155.328 126.339 160.549 122.566 168.851 114.443L169.204 114.097L169.554 114.447L174.772 119.666L174.289 120.008C164.242 127.136 159.697 131.765 153.622 140.965L161.236 150.075C171.848 136.339 178.2 118.952 178.2 100C178.2 80.9049 171.753 63.3981 160.996 49.6143L111.935 99.8789ZM99.8008 19.4004C80.074 19.4004 62.0077 26.9072 48.2021 39.3184L99.9951 88.5332L151.598 39.498C137.767 26.9798 119.622 19.4006 99.8008 19.4004ZM100 5C75.8869 5 53.8722 13.984 37.1201 28.7871L44.5664 35.8623C59.277 22.5067 78.6167 14.4004 99.8008 14.4004L100.878 14.4072C121.735 14.6784 140.747 22.8081 155.232 36.0439L162.873 28.7822C146.122 13.9824 124.11 5 100 5Z" fill="black"/>
</svg>
